<svg width="461" height="30" viewBox="0 0 461 30" fill="none" xmlns="http://www.w3.org/2000/svg">
<path d="M0.48 29V0.999998H8.68L15.36 11.84L22.04 0.999998H30.24V29H22.52V12.92L15.36 23.88H15.2L8.08 13V29H0.48ZM32.9666 29L44.8866 0.799998H52.3666L64.2866 29H55.9666L53.9266 24H43.1266L41.1266 29H32.9666ZM45.4066 17.96H51.6866L48.5666 10L45.4066 17.96ZM77.6128 29.48C72.6528 29.48 67.9328 27.92 64.4928 24.84L68.8128 19.68C71.5728 21.88 74.6528 23.04 77.8928 23.04C79.9728 23.04 81.0928 22.32 81.0928 21.12V21.04C81.0928 19.88 80.1728 19.24 76.3728 18.36C70.4128 17 65.8128 15.32 65.8128 9.56V9.48C65.8128 4.28 69.9328 0.52 76.6528 0.52C81.4128 0.52 85.1328 1.8 88.1728 4.24L84.2928 9.72C81.7328 7.92 78.9328 6.96 76.4528 6.96C74.5728 6.96 73.6528 7.76 73.6528 8.76V8.84C73.6528 10.12 74.6128 10.68 78.4928 11.56C84.9328 12.96 88.9328 15.04 88.9328 20.28V20.36C88.9328 26.08 84.4128 29.48 77.6128 29.48ZM106.187 29.56C98.1866 29.56 91.7466 23.44 91.7466 15.08V15C91.7466 6.84 98.0266 0.439998 106.507 0.439998C112.227 0.439998 115.907 2.84 118.387 6.28L112.547 10.8C110.947 8.8 109.107 7.52 106.427 7.52C102.507 7.52 99.7466 10.84 99.7466 14.92V15C99.7466 19.2 102.507 22.48 106.427 22.48C109.347 22.48 111.067 21.12 112.747 19.08L118.587 23.24C115.947 26.88 112.387 29.56 106.187 29.56ZM121.925 29V0.999998H129.685V11.48H139.645V0.999998H147.405V29H139.645V18.36H129.685V29H121.925ZM150.115 29L162.035 0.799998H169.515L181.435 29H173.115L171.075 24H160.275L158.275 29H150.115ZM162.555 17.96H168.835L165.715 10L162.555 17.96ZM184.312 29V0.999998H192.112V29H184.312ZM197.238 29V0.999998H204.478L215.998 15.8V0.999998H223.678V29H216.878L204.918 13.64V29H197.238ZM239.738 29V0.999998H262.258V7.6H247.418V11.84H260.858V17.96H247.418V22.4H262.458V29H239.738ZM264.378 29L273.978 14.76L264.778 0.999998H273.698L278.658 8.88L283.658 0.999998H292.378L283.178 14.68L292.778 29H283.858L278.498 20.56L273.098 29H264.378ZM295.714 29V0.999998H307.714C314.794 0.999998 319.354 4.64 319.354 10.84V10.92C319.354 17.52 314.274 21 307.314 21H303.474V29H295.714ZM303.474 14.92H307.154C309.914 14.92 311.594 13.48 311.594 11.28V11.2C311.594 8.8 309.914 7.52 307.114 7.52H303.474V14.92ZM322.628 29V0.999998H330.388V22.2H343.948V29H322.628ZM359.755 29.56C351.115 29.56 344.715 23.12 344.715 15.08V15C344.715 6.96 351.195 0.439998 359.835 0.439998C368.475 0.439998 374.875 6.88 374.875 14.92V15C374.875 23.04 368.395 29.56 359.755 29.56ZM359.835 22.56C364.115 22.56 366.955 19.12 366.955 15.08V15C366.955 10.96 364.035 7.44 359.755 7.44C355.515 7.44 352.675 10.88 352.675 14.92V15C352.675 19.04 355.595 22.56 359.835 22.56ZM378.918 29V0.999998H392.158C396.438 0.999998 399.398 2.12 401.278 4.04C402.918 5.64 403.758 7.8 403.758 10.56V10.64C403.758 14.92 401.478 17.76 397.998 19.24L404.678 29H395.718L390.078 20.52H389.998H386.678V29H378.918ZM386.678 14.44H391.798C394.438 14.44 395.958 13.16 395.958 11.12V11.04C395.958 8.84 394.358 7.72 391.758 7.72H386.678V14.44ZM407.668 29V0.999998H430.188V7.6H415.348V11.84H428.788V17.96H415.348V22.4H430.388V29H407.668ZM434.347 29V0.999998H447.587C451.867 0.999998 454.827 2.12 456.707 4.04C458.347 5.64 459.187 7.8 459.187 10.56V10.64C459.187 14.92 456.907 17.76 453.427 19.24L460.107 29H451.147L445.507 20.52H445.427H442.107V29H434.347ZM442.107 14.44H447.227C449.867 14.44 451.387 13.16 451.387 11.12V11.04C451.387 8.84 449.787 7.72 447.187 7.72H442.107V14.44Z" fill="white"/>
</svg>
